<svg width="534" height="271" viewBox="0 0 534 271" fill="none" xmlns="http://www.w3.org/2000/svg">
<g clip-path="url(#clip0)">
<path opacity="0.1" d="M168.696 168.682C180.089 179.848 178.537 194.862 174.1 206.66C172.617 210.61 170.891 214.77 172.428 219.236C174.307 224.689 180.623 229.028 186.955 231.541C198.495 236.122 211.494 236.155 220.801 231.627C228.843 227.713 233.989 220.784 242.212 217.086C255.971 210.9 275.259 214.984 292.11 221.125C304.032 225.47 317.172 230.952 327.949 228.071C335.533 226.043 340.102 220.118 342.107 213.633C343.077 210.503 343.609 207.076 345.995 204.71C347.415 203.304 349.4 202.375 351.462 201.619C370.306 194.717 396.332 200.997 414.462 193.15C426.707 187.851 433.393 176.685 435.305 164.679C437.218 152.672 434.87 139.774 432.045 127.061C430.037 118.031 427.404 108.356 419.514 100.934C411.168 93.0832 398.307 89.4664 387.259 90.0634C376.212 90.6605 366.743 94.895 358.634 100.103C348.502 106.615 339.448 114.977 326.115 116.956C317.034 118.304 307.004 116.496 297.271 115.422C281.002 113.628 265.031 113.893 249.177 114.301C233.998 114.691 218.732 115.222 204.685 118.364C194.745 120.589 187.222 125.377 177.967 128.438C171.941 130.433 165.072 130.612 159.488 133.303C152.608 136.617 146.768 142.819 149.84 150.783C152.761 158.36 162.638 162.755 168.696 168.682Z" fill="#19130D"/>
<g filter="url(#filter0_dd)">
<path d="M109.825 106.777C112.052 106.777 113.904 106.555 115.38 106.109V98.7617C115.38 97.1914 115.298 96.0898 115.134 95.457H107.646V91.0625C111.161 90.6172 114.654 90.2891 118.122 90.0781C121.591 89.8672 125.13 89.7617 128.74 89.7617H130.286V108.219C124.474 111.922 117.63 113.773 109.755 113.773C105.56 113.773 101.763 113.246 98.3645 112.191C94.9895 111.137 92.1067 109.59 89.7161 107.551C87.3255 105.512 85.4739 103.004 84.1614 100.027C82.8723 97.0273 82.2278 93.5938 82.2278 89.7266C82.2278 85.2031 82.9309 81.2891 84.3372 77.9844C85.7669 74.6562 87.7825 71.9141 90.3841 69.7578C92.9856 67.6016 96.1263 65.9961 99.8059 64.9414C103.486 63.8867 107.599 63.3594 112.146 63.3594C113.716 63.3594 115.345 63.4766 117.033 63.7109C118.72 63.9219 120.337 64.2266 121.884 64.625C123.454 65.0234 124.896 65.5039 126.208 66.0664C127.521 66.6055 128.587 67.2031 129.408 67.8594L128.529 80.3398H119.704C119.517 78.6523 119.177 77.1289 118.685 75.7695C118.193 74.4102 117.536 73.2617 116.716 72.3242C115.919 71.3633 114.97 70.625 113.868 70.1094C112.767 69.5938 111.525 69.3359 110.142 69.3359C106.204 69.3359 103.216 70.9766 101.177 74.2578C99.138 77.5391 98.1184 82.4609 98.1184 89.0234C98.1184 91.5781 98.3528 93.9453 98.8216 96.125C99.3138 98.2812 100.04 100.156 101.001 101.75C101.962 103.32 103.181 104.551 104.658 105.441C106.134 106.332 107.857 106.777 109.825 106.777ZM181.181 113C180.385 113 179.4 113.012 178.228 113.035C177.08 113.082 175.72 113.129 174.15 113.176L168.49 113.387V109.027C168.935 108.957 169.357 108.91 169.756 108.887C170.154 108.863 170.494 108.816 170.775 108.746C171.08 108.676 171.314 108.57 171.478 108.43C171.642 108.266 171.724 108.02 171.724 107.691C171.724 107.574 171.713 107.457 171.689 107.34C171.666 107.223 171.631 107.082 171.584 106.918L169.123 99.2891H157.31L155.904 104C155.717 104.562 155.588 105.09 155.517 105.582C155.447 106.074 155.412 106.52 155.412 106.918C155.412 107.27 155.506 107.551 155.693 107.762C155.881 107.973 156.127 108.148 156.431 108.289C156.736 108.43 157.088 108.547 157.486 108.641C157.908 108.711 158.353 108.781 158.822 108.852L157.943 113.387C156.654 113.27 155.119 113.176 153.338 113.105C151.556 113.035 149.494 113 147.15 113C144.314 113 141.9 113.035 139.908 113.105C137.916 113.176 136.322 113.27 135.127 113.387L136.428 108.711L137.342 108.57C138.115 108.453 138.748 108.301 139.24 108.113C139.756 107.902 140.178 107.633 140.506 107.305C140.857 106.977 141.15 106.566 141.385 106.074C141.619 105.559 141.877 104.938 142.158 104.211C143.705 100.086 145.17 96.2188 146.553 92.6094C147.959 88.9766 149.306 85.5312 150.595 82.2734C151.885 79.0156 153.115 75.8984 154.287 72.9219C155.482 69.9453 156.642 67.0508 157.767 64.2383H164.201C165.279 64.2383 166.275 64.2734 167.189 64.3438C168.127 64.4141 168.959 64.5547 169.685 64.7656C170.435 64.9766 171.056 65.2812 171.549 65.6797C172.064 66.0781 172.451 66.6055 172.709 67.2617C174.513 72.1133 176.107 76.4023 177.49 80.1289C178.873 83.8555 180.08 87.125 181.111 89.9375C182.142 92.7266 183.021 95.1055 183.748 97.0742C184.474 99.043 185.084 100.684 185.576 101.996C186.068 103.309 186.455 104.352 186.736 105.125C187.017 105.875 187.228 106.449 187.369 106.848C187.51 107.223 187.592 107.469 187.615 107.586C187.662 107.703 187.685 107.773 187.685 107.797L192.607 108.5L193.521 113.387C189.724 113.27 186.806 113.176 184.767 113.105C182.752 113.035 181.556 113 181.181 113ZM162.97 77.6328L158.365 93.9102H167.646C167.365 92.9727 167.037 91.8477 166.662 90.5352C166.31 89.2227 165.935 87.8281 165.537 86.3516C165.138 84.875 164.728 83.3867 164.306 81.8867C163.885 80.3867 163.486 78.9688 163.111 77.6328H162.97ZM252.959 63.8164C255.373 63.8164 257.881 63.875 260.483 63.9922C263.108 64.0859 265.838 64.2266 268.674 64.4141V70.2852H261.889C261.959 71.1523 262.053 72.2539 262.17 73.5898C262.311 74.9258 262.451 76.4141 262.592 78.0547C262.756 79.6953 262.92 81.4414 263.084 83.293C263.272 85.1211 263.448 86.9609 263.612 88.8125C263.799 90.6406 263.975 92.4219 264.139 94.1562C264.326 95.8906 264.49 97.4844 264.631 98.9375C264.772 100.391 264.889 101.656 264.983 102.734C265.1 103.789 265.182 104.551 265.229 105.02C265.276 105.512 265.323 105.922 265.369 106.25C265.44 106.555 265.522 106.848 265.615 107.129H272.119L272.752 113.562C270.619 113.375 268.381 113.234 266.037 113.141C263.694 113.047 261.209 113 258.584 113C256.24 113 254.026 113.035 251.94 113.105C249.854 113.176 247.815 113.27 245.823 113.387L246.244 107.129H250.323C250.299 107.129 250.147 105.441 249.865 102.066C249.584 98.668 249.115 93.4414 248.459 86.3867C246.701 92.5977 245.178 97.8945 243.889 102.277C242.6 106.637 241.545 110.188 240.725 112.93H227.752C226.323 108.875 224.823 104.656 223.252 100.273C221.705 95.8906 220.088 91.2266 218.401 86.2812C218.119 88.8828 217.85 91.4141 217.592 93.875C217.334 96.3359 217.1 98.5625 216.889 100.555C216.631 102.875 216.408 105.066 216.221 107.129H222.83L222.198 113.387C219.854 113.27 217.768 113.176 215.94 113.105C214.135 113.035 212.53 113 211.123 113C209.084 113 206.987 113.047 204.83 113.141C202.674 113.234 200.424 113.375 198.08 113.562L198.713 107.129H205.217L208.944 72.5352C208.967 72.418 208.979 72.3008 208.979 72.1836C208.979 72.043 208.979 71.9141 208.979 71.7969C208.979 71.4688 208.967 71.1875 208.944 70.9531C208.92 70.6953 208.897 70.4727 208.873 70.2852H201.701V64.4141C204.537 64.2266 207.256 64.0859 209.858 63.9922C212.483 63.875 215.002 63.8164 217.416 63.8164C219.104 63.8164 220.615 63.8867 221.951 64.0273C223.311 64.168 224.53 64.3672 225.608 64.625C225.912 65.5625 226.311 66.7812 226.803 68.2812C227.319 69.7812 227.881 71.4336 228.49 73.2383C229.1 75.043 229.733 76.9062 230.389 78.8281C231.045 80.75 231.678 82.6016 232.287 84.3828C232.897 86.1641 233.448 87.793 233.94 89.2695C234.455 90.7227 234.854 91.8711 235.135 92.7148L241.112 75.1016C242.19 71.9375 243.022 69.5 243.608 67.7891C244.217 66.0547 244.604 65 244.768 64.625C246.924 64.0859 249.655 63.8164 252.959 63.8164ZM279.28 65.082C287.952 64.5195 295.967 64.2383 303.327 64.2383C306.28 64.2383 308.811 64.2383 310.921 64.2383C313.053 64.2383 314.846 64.2383 316.3 64.2383C317.776 64.2383 318.971 64.2383 319.885 64.2383C320.823 64.2383 321.573 64.2383 322.135 64.2383C322.698 64.2383 323.132 64.2383 323.436 64.2383C323.741 64.2148 324.01 64.2031 324.245 64.2031L326.178 75.5234L318.339 76.5078C318.221 75.5703 318.046 74.6797 317.811 73.8359C317.577 72.9688 317.272 72.1367 316.897 71.3398C313.944 70.918 311.46 70.707 309.444 70.707H301.815V85.6836H307.897C308.342 85.6836 308.694 85.5195 308.952 85.1914C309.233 84.8633 309.444 84.4648 309.585 83.9961C309.749 83.5039 309.878 82.9883 309.971 82.4492C310.065 81.9102 310.171 81.418 310.288 80.9727H315.596V96.2656C315.268 96.2891 314.94 96.3008 314.612 96.3008C314.284 96.3008 313.956 96.3008 313.628 96.3008H310.288C310.077 95.293 309.878 94.4609 309.69 93.8047C309.526 93.1484 309.35 92.6328 309.163 92.2578C308.975 91.8594 308.776 91.5898 308.565 91.4492C308.378 91.3086 308.155 91.2383 307.897 91.2383H301.815V107.129H311.659C313.581 107.129 314.999 106.977 315.913 106.672C316.077 106.203 316.241 105.453 316.405 104.422C316.592 103.367 316.803 101.996 317.038 100.309C318.538 100.355 320.038 100.379 321.538 100.379C323.038 100.379 324.667 100.379 326.425 100.379C326.378 102.441 326.319 104.48 326.249 106.496C326.178 108.512 326.085 110.516 325.967 112.508C320.436 112.859 315.702 113.035 311.764 113.035C308.858 113.035 306.21 113.035 303.819 113.035C301.452 113.035 299.272 113.035 297.28 113.035C295.311 113.035 293.495 113.035 291.831 113.035C290.19 113.035 288.643 113.023 287.19 113C285.76 113 284.401 113 283.112 113C281.823 112.977 280.546 112.965 279.28 112.965V107.129H286.557C286.604 106.73 286.639 106.309 286.663 105.863C286.71 105.418 286.733 104.926 286.733 104.387V73.9414C286.733 73.2617 286.71 72.6523 286.663 72.1133C286.639 71.5742 286.604 71.1055 286.557 70.707H279.28V65.082Z" fill="#4D21FF"/>
</g>
<g filter="url(#filter1_dddddd)">
<path d="M216.56 167.714V153.478H196.218V167.642C196.218 168.485 196.242 169.231 196.29 169.882C196.362 170.508 196.458 171.074 196.579 171.58C197.037 171.652 197.494 171.701 197.952 171.725C198.41 171.725 198.903 171.725 199.433 171.725H202.938V177.47C200.746 177.277 198.687 177.145 196.76 177.072C194.857 177.024 193.014 177 191.231 177C189.087 177 186.895 177.024 184.655 177.072C182.439 177.145 180.09 177.277 177.609 177.47V171.725H181.331C181.885 171.725 182.403 171.725 182.885 171.725C183.366 171.701 183.836 171.652 184.294 171.58C184.559 170.641 184.691 169.352 184.691 167.714L184.619 135.339C184.619 134.496 184.583 133.761 184.511 133.135C184.438 132.508 184.342 131.954 184.221 131.473C183.788 131.376 183.318 131.328 182.812 131.328C182.33 131.304 181.813 131.292 181.259 131.292H177.537V126.414C179.608 126.173 181.644 126.005 183.643 125.908C185.667 125.788 187.762 125.728 189.93 125.728C192.556 125.728 194.965 125.764 197.157 125.836C199.349 125.908 201.276 126.065 202.938 126.306V131.292H199.361C198.855 131.292 198.361 131.304 197.88 131.328C197.422 131.328 196.964 131.376 196.507 131.473C196.29 132.412 196.181 133.604 196.181 135.05L196.218 147.805H216.56L216.524 135.339C216.5 134.496 216.452 133.761 216.38 133.135C216.331 132.508 216.247 131.954 216.127 131.473C215.717 131.376 215.272 131.328 214.79 131.328C214.308 131.304 213.814 131.292 213.308 131.292H209.767V126.414C211.863 126.173 213.911 126.005 215.91 125.908C217.933 125.788 220.017 125.728 222.161 125.728C224.811 125.728 227.219 125.764 229.387 125.836C231.58 125.908 233.519 126.065 235.205 126.306V131.292H231.375C230.821 131.292 230.303 131.304 229.821 131.328C229.339 131.328 228.87 131.376 228.412 131.473C228.291 131.954 228.195 132.508 228.123 133.135C228.075 133.761 228.051 134.496 228.051 135.339L228.087 167.642C228.087 168.485 228.111 169.231 228.159 169.882C228.231 170.508 228.328 171.074 228.448 171.58C228.906 171.652 229.375 171.701 229.857 171.725C230.339 171.725 230.857 171.725 231.411 171.725H235.169V177.47C233.097 177.277 231.158 177.145 229.351 177.072C227.545 177.024 225.798 177 224.112 177H221.763C219.909 177 218.006 177.024 216.054 177.072C214.103 177.145 212.032 177.277 209.84 177.47V171.725H213.308C213.838 171.725 214.344 171.725 214.826 171.725C215.308 171.701 215.753 171.652 216.163 171.58C216.307 171.146 216.404 170.617 216.452 169.99C216.524 169.34 216.56 168.581 216.56 167.714ZM264.316 125.944H286.104L287.008 130.605C287.225 131.786 287.429 132.954 287.622 134.11C287.815 135.267 287.971 136.23 288.092 137.001L281.443 137.615C281.299 136.748 281.13 135.881 280.937 135.014C280.769 134.146 280.516 133.267 280.179 132.376C278.998 132.063 277.722 131.846 276.349 131.726C274.976 131.581 273.41 131.509 271.651 131.509C271.194 131.509 270.676 131.509 270.098 131.509C269.544 131.509 268.893 131.521 268.146 131.545C267.4 131.545 266.532 131.557 265.545 131.581C264.557 131.605 263.413 131.629 262.112 131.653V148.527H270.495C271.266 148.527 271.88 148.467 272.338 148.347C272.82 148.226 273.205 148.009 273.494 147.696C273.807 147.359 274.06 146.901 274.253 146.323C274.47 145.745 274.698 145.01 274.939 144.119H278.553C278.553 146.528 278.529 148.937 278.48 151.346C278.432 153.73 278.372 156.055 278.3 158.319C278.083 158.343 277.866 158.355 277.649 158.355C277.433 158.355 277.216 158.355 276.999 158.355C276.589 158.355 276.168 158.355 275.734 158.355C275.325 158.331 274.915 158.319 274.506 158.319C274.241 157.356 273.988 156.561 273.747 155.935C273.53 155.308 273.277 154.814 272.988 154.453C272.723 154.092 272.422 153.851 272.085 153.73C271.748 153.586 271.35 153.514 270.892 153.514H262.112V171.725H275.517C276.65 171.725 277.637 171.652 278.48 171.508C279.348 171.339 279.986 171.122 280.395 170.857C280.588 170.327 280.769 169.569 280.937 168.581C281.106 167.593 281.287 166.269 281.479 164.606C282.539 164.631 283.647 164.655 284.804 164.679C285.984 164.679 287.212 164.679 288.489 164.679L288.381 169.268C288.333 170.472 288.272 171.701 288.2 172.953C288.152 174.182 288.092 175.314 288.019 176.35C286.96 176.518 285.9 176.663 284.84 176.783C283.804 176.904 282.708 177 281.552 177.072C280.395 177.145 279.167 177.193 277.866 177.217C276.589 177.265 275.192 177.289 273.675 177.289C271.82 177.289 270.073 177.277 268.435 177.253C266.797 177.229 265.22 177.193 263.702 177.145C262.184 177.12 260.715 177.084 259.294 177.036C257.897 177.012 256.512 177 255.139 177C252.874 177 250.767 177.012 248.815 177.036C246.888 177.06 244.949 177.132 242.998 177.253V171.725H247.045C247.623 171.725 248.165 171.725 248.671 171.725C249.201 171.701 249.707 171.652 250.188 171.58C250.309 171.098 250.405 170.568 250.477 169.99C250.55 169.388 250.586 168.701 250.586 167.931V135.664C250.586 134.845 250.538 134.134 250.441 133.532C250.369 132.93 250.273 132.388 250.152 131.906C249.695 131.81 249.213 131.762 248.707 131.762C248.201 131.738 247.659 131.726 247.081 131.726H242.781V126.92C246.154 126.559 249.646 126.306 253.26 126.161C256.897 126.017 260.583 125.944 264.316 125.944ZM325.478 126.017C326.778 126.667 327.923 127.402 328.91 128.221C329.898 129.04 330.633 130.088 331.114 131.364C332.656 135.532 334.077 139.362 335.378 142.854C336.703 146.347 337.907 149.575 338.991 152.538C340.099 155.501 341.111 158.211 342.026 160.668C342.942 163.125 343.797 165.401 344.592 167.497C344.857 168.22 345.086 168.834 345.278 169.34C345.471 169.822 345.64 170.231 345.784 170.568C345.929 170.906 346.049 171.183 346.146 171.399C346.266 171.592 346.374 171.761 346.471 171.905C346.712 171.953 346.965 172.002 347.23 172.05C347.495 172.098 347.82 172.146 348.205 172.194C348.591 172.218 349.048 172.255 349.578 172.303C350.108 172.327 350.759 172.363 351.529 172.411L352.505 177.47C349.952 177.253 347.723 177.12 345.82 177.072C343.917 177.024 342.34 177 341.087 177C340.629 177 340.003 177 339.208 177C338.437 177.024 337.558 177.048 336.57 177.072C335.583 177.12 334.523 177.169 333.391 177.217C332.283 177.289 331.163 177.373 330.03 177.47L329.669 172.664C330.127 172.664 330.572 172.64 331.006 172.592C331.44 172.544 331.825 172.483 332.162 172.411C332.524 172.339 332.813 172.243 333.029 172.122C333.246 171.978 333.355 171.809 333.355 171.616C333.234 170.894 333.053 170.135 332.813 169.34C332.596 168.521 332.331 167.69 332.018 166.847L330.356 162.294H313.698L312.325 166.666C311.988 167.678 311.735 168.545 311.566 169.268C311.398 169.99 311.314 170.653 311.314 171.255C311.314 171.544 311.458 171.773 311.747 171.941C312.036 172.11 312.373 172.243 312.759 172.339C313.168 172.411 313.59 172.471 314.024 172.52C314.481 172.544 314.879 172.568 315.216 172.592L314.602 177.47C313.277 177.277 311.844 177.145 310.302 177.072C308.76 177.024 307.098 177 305.316 177C302.955 177 300.859 177.024 299.028 177.072C297.222 177.145 295.548 177.277 294.006 177.47L295.198 172.52L296.535 172.447C297.354 172.447 298.041 172.339 298.595 172.122C299.173 171.905 299.655 171.604 300.04 171.219C300.426 170.809 300.751 170.327 301.016 169.773C301.305 169.195 301.582 168.557 301.847 167.858C302.883 165.04 304.063 161.909 305.388 158.464C306.737 155.019 308.134 151.442 309.579 147.732C311.024 144.023 312.494 140.289 313.987 136.531C315.481 132.773 316.902 129.172 318.251 125.728H322.117C322.864 125.728 323.49 125.752 323.996 125.8C324.502 125.848 324.996 125.92 325.478 126.017ZM322.081 135.664H321.828L314.855 157.705H328.91C328.404 156.091 327.862 154.381 327.284 152.574C326.73 150.743 326.164 148.877 325.586 146.974C325.008 145.071 324.418 143.168 323.816 141.265C323.237 139.338 322.659 137.471 322.081 135.664ZM365.537 167.714C365.537 162.222 365.525 156.766 365.501 151.346C365.501 145.926 365.501 140.482 365.501 135.014C365.501 133.352 365.381 132.159 365.14 131.437C364.658 131.34 364.152 131.292 363.622 131.292C363.092 131.292 362.562 131.292 362.032 131.292H357.588V126.306C359.178 126.161 360.924 126.041 362.827 125.944C364.754 125.848 366.706 125.776 368.681 125.728C370.68 125.655 372.668 125.607 374.643 125.583C376.642 125.559 378.509 125.547 380.243 125.547C383.592 125.547 386.687 125.764 389.53 126.197C392.372 126.607 394.817 127.378 396.865 128.51C398.936 129.618 400.55 131.135 401.706 133.062C402.863 134.99 403.441 137.447 403.441 140.434C403.441 142.023 403.176 143.493 402.646 144.842C402.116 146.167 401.357 147.371 400.369 148.455C399.406 149.539 398.226 150.491 396.828 151.31C395.455 152.129 393.914 152.827 392.203 153.405C393.938 154.056 395.419 154.923 396.648 156.007C397.876 157.067 398.936 158.343 399.827 159.837C400.743 161.33 401.526 163.041 402.176 164.968C402.826 166.871 403.441 169.003 404.019 171.363C404.26 171.363 404.597 171.363 405.031 171.363C405.464 171.339 405.946 171.327 406.476 171.327C407.03 171.327 407.596 171.327 408.174 171.327C408.776 171.303 409.342 171.291 409.872 171.291L409.583 177.542C408.572 177.638 407.439 177.735 406.187 177.831C404.934 177.951 403.706 178.012 402.501 178.012C400.165 178.012 398.238 177.59 396.72 176.747C395.202 175.88 394.046 174.495 393.251 172.592C392.384 170.544 391.649 168.641 391.047 166.883C390.469 165.124 389.903 163.535 389.349 162.113C388.795 160.692 388.205 159.464 387.578 158.428C386.976 157.392 386.229 156.561 385.338 155.935C384.061 155.718 382.712 155.621 381.291 155.646C379.87 155.646 378.473 155.621 377.1 155.573V167.642C377.1 168.485 377.124 169.231 377.172 169.882C377.244 170.508 377.341 171.074 377.461 171.58C377.943 171.652 378.449 171.701 378.979 171.725C379.509 171.725 380.051 171.725 380.605 171.725H383.495V177.47C381.376 177.277 379.388 177.145 377.533 177.072C375.703 177.024 373.92 177 372.186 177C370.042 177 367.862 177.024 365.646 177.072C363.454 177.145 361.117 177.277 358.636 177.47V171.725H361.743C362.37 171.725 362.96 171.725 363.514 171.725C364.068 171.701 364.61 171.652 365.14 171.58C365.26 171.146 365.357 170.617 365.429 169.99C365.501 169.34 365.537 168.581 365.537 167.714ZM380.532 131.292H377.1V150.479C377.461 150.503 377.823 150.515 378.184 150.515C378.569 150.515 378.967 150.515 379.376 150.515C381.496 150.515 383.327 150.346 384.868 150.009C386.41 149.647 387.675 149.081 388.662 148.311C389.674 147.54 390.421 146.528 390.903 145.275C391.384 144.023 391.625 142.505 391.625 140.723C391.625 138.964 391.42 137.495 391.011 136.314C390.601 135.11 389.951 134.134 389.06 133.388C388.169 132.641 387.012 132.111 385.591 131.798C384.194 131.461 382.508 131.292 380.532 131.292Z" fill="#FFFDFB"/>
</g>
</g>
<defs>
<filter id="filter0_dd" x="76.9077" y="63.3594" width="254.837" height="62.3842" filterUnits="userSpaceOnUse" color-interpolation-filters="sRGB">
<feFlood flood-opacity="0" result="BackgroundImageFix"/>
<feColorMatrix in="SourceAlpha" type="matrix" values="0 0 0 0 0 0 0 0 0 0 0 0 0 0 0 0 0 0 127 0"/>
<feOffset dy="2.76726"/>
<feGaussianBlur stdDeviation="1.1069"/>
<feColorMatrix type="matrix" values="0 0 0 0 0.901655 0 0 0 0 0.879081 0 0 0 0 0.991947 0 0 0 0.75 0"/>
<feBlend mode="normal" in2="BackgroundImageFix" result="effect1_dropShadow"/>
<feColorMatrix in="SourceAlpha" type="matrix" values="0 0 0 0 0 0 0 0 0 0 0 0 0 0 0 0 0 0 127 0"/>
<feOffset dy="6.6501"/>
<feGaussianBlur stdDeviation="2.66004"/>
<feColorMatrix type="matrix" values="0 0 0 0 0.765531 0 0 0 0 0.751635 0 0 0 0 0.821114 0 0 0 0.92 0"/>
<feBlend mode="normal" in2="effect1_dropShadow" result="effect2_dropShadow"/>
<feBlend mode="normal" in="SourceGraphic" in2="effect2_dropShadow" result="shape"/>
</filter>
<filter id="filter1_dddddd" x="97.5369" y="125.547" width="392.335" height="232.465" filterUnits="userSpaceOnUse" color-interpolation-filters="sRGB">
<feFlood flood-opacity="0" result="BackgroundImageFix"/>
<feColorMatrix in="SourceAlpha" type="matrix" values="0 0 0 0 0 0 0 0 0 0 0 0 0 0 0 0 0 0 127 0"/>
<feOffset dy="2.76726"/>
<feGaussianBlur stdDeviation="1.1069"/>
<feColorMatrix type="matrix" values="0 0 0 0 0.57647 0 0 0 0 0.470588 0 0 0 0 1 0 0 0 0.75 0"/>
<feBlend mode="normal" in2="BackgroundImageFix" result="effect1_dropShadow"/>
<feColorMatrix in="SourceAlpha" type="matrix" values="0 0 0 0 0 0 0 0 0 0 0 0 0 0 0 0 0 0 127 0"/>
<feOffset dy="6.6501"/>
<feGaussianBlur stdDeviation="2.66004"/>
<feColorMatrix type="matrix" values="0 0 0 0 0.576471 0 0 0 0 0.470588 0 0 0 0 1 0 0 0 0.0282725 0"/>
<feBlend mode="normal" in2="effect1_dropShadow" result="effect2_dropShadow"/>
<feColorMatrix in="SourceAlpha" type="matrix" values="0 0 0 0 0 0 0 0 0 0 0 0 0 0 0 0 0 0 127 0"/>
<feOffset dy="12.5216"/>
<feGaussianBlur stdDeviation="5.00862"/>
<feColorMatrix type="matrix" values="0 0 0 0 0.576471 0 0 0 0 0.470588 0 0 0 0 1 0 0 0 0.035 0"/>
<feBlend mode="normal" in2="effect2_dropShadow" result="effect3_dropShadow"/>
<feColorMatrix in="SourceAlpha" type="matrix" values="0 0 0 0 0 0 0 0 0 0 0 0 0 0 0 0 0 0 127 0"/>
<feOffset dy="22.3363"/>
<feGaussianBlur stdDeviation="8.93452"/>
<feColorMatrix type="matrix" values="0 0 0 0 0.576471 0 0 0 0 0.470588 0 0 0 0 1 0 0 0 0.0417275 0"/>
<feBlend mode="normal" in2="effect3_dropShadow" result="effect4_dropShadow"/>
<feColorMatrix in="SourceAlpha" type="matrix" values="0 0 0 0 0 0 0 0 0 0 0 0 0 0 0 0 0 0 127 0"/>
<feOffset dy="41.7776"/>
<feGaussianBlur stdDeviation="16.711"/>
<feColorMatrix type="matrix" values="0 0 0 0 0.576471 0 0 0 0 0.470588 0 0 0 0 1 0 0 0 0.0503198 0"/>
<feBlend mode="normal" in2="effect4_dropShadow" result="effect5_dropShadow"/>
<feColorMatrix in="SourceAlpha" type="matrix" values="0 0 0 0 0 0 0 0 0 0 0 0 0 0 0 0 0 0 127 0"/>
<feOffset dy="100"/>
<feGaussianBlur stdDeviation="40"/>
<feColorMatrix type="matrix" values="0 0 0 0 0.57647 0 0 0 0 0.470588 0 0 0 0 1 0 0 0 0.05 0"/>
<feBlend mode="normal" in2="effect5_dropShadow" result="effect6_dropShadow"/>
<feBlend mode="normal" in="SourceGraphic" in2="effect6_dropShadow" result="shape"/>
</filter>
<clipPath id="clip0">
<rect width="534" height="271" fill="white"/>
</clipPath>
</defs>
</svg>
